<?xml version="1.0" standalone="no"?><!DOCTYPE svg PUBLIC "-//W3C//DTD SVG 1.1//EN" "http://www.w3.org/Graphics/SVG/1.1/DTD/svg11.dtd"><svg t="1732459883406" class="icon" viewBox="0 0 1024 1024" version="1.1" xmlns="http://www.w3.org/2000/svg" p-id="11494" xmlns:xlink="http://www.w3.org/1999/xlink" width="200" height="200"><path d="M592 262.4c-3.2-6.4-3.2-6.4-6.4-9.6-3.2-3.2-6.4-3.2-12.8-6.4s-9.6-3.2-16-3.2H41.6C19.2 246.4 0 262.4 0 288v691.2c0 22.4 19.2 41.6 41.6 41.6h515.2c22.4 0 41.6-19.2 41.6-41.6V288c0-9.6-3.2-19.2-6.4-25.6zM512 937.6H86.4v-608H512v608z" fill="#33658A" p-id="11495"></path><path d="M432 764.8h-57.6L352 704H246.4L224 764.8H166.4l102.4-265.6h57.6l105.6 265.6z m-99.2-105.6l-35.2-99.2-35.2 99.2h70.4z" fill="#33658A" p-id="11496"></path><path d="M1017.6 19.2l-6.4-6.4c-3.2-3.2-9.6-6.4-12.8-9.6-6.4-3.2-12.8-3.2-16-3.2H467.2c-22.4 0-41.6 19.2-41.6 41.6V284.8H512V83.2h425.6v608H547.2v83.2H982.4c22.4 0 41.6-19.2 41.6-41.6V41.6c0-9.6-3.2-16-6.4-22.4z" fill="#33658A" p-id="11497"></path><path d="M816 483.2c-3.2-6.4-6.4-16-6.4-22.4 0-6.4-3.2-25.6-3.2-57.6v-44.8c0-16 0-25.6-3.2-32l-9.6-19.2c-6.4-6.4-12.8-12.8-22.4-16-9.6-3.2-25.6-6.4-41.6-6.4s-32 3.2-44.8 6.4c-12.8 3.2-22.4 9.6-28.8 19.2-6.4 9.6-12.8 19.2-16 35.2v3.2l38.4 6.4V352c3.2-12.8 9.6-22.4 16-25.6 9.6-6.4 16-6.4 32-6.4s25.6 3.2 35.2 9.6c6.4 6.4 9.6 12.8 9.6 25.6v6.4c-12.8 3.2-32 6.4-54.4 9.6-12.8 3.2-22.4 3.2-28.8 6.4-9.6 3.2-16 3.2-25.6 9.6-9.6 6.4-16 12.8-19.2 19.2-6.4 9.6-6.4 16-6.4 28.8 0 16 6.4 32 19.2 41.6s28.8 16 51.2 16c12.8 0 22.4 0 38.4-6.4 9.6-3.2 19.2-9.6 32-19.2 0 6.4 3.2 12.8 6.4 19.2l3.2 3.2h32l-3.2-6.4z m-51.2-89.6v6.4c0 12.8-3.2 25.6-6.4 32-3.2 9.6-9.6 16-19.2 22.4-9.6 6.4-19.2 6.4-32 6.4s-22.4-3.2-25.6-6.4c-6.4-6.4-9.6-12.8-9.6-22.4 0-6.4 0-9.6 3.2-12.8 3.2-3.2 6.4-6.4 12.8-9.6 6.4-3.2 16-3.2 28.8-6.4 19.2-3.2 38.4-6.4 48-9.6z" fill="#33658A" p-id="11498"></path></svg>