<?xml version="1.0" standalone="no"?><!DOCTYPE svg PUBLIC "-//W3C//DTD SVG 1.1//EN" "http://www.w3.org/Graphics/SVG/1.1/DTD/svg11.dtd"><svg t="1732351019723" class="icon" viewBox="0 0 1109 1024" version="1.1" xmlns="http://www.w3.org/2000/svg" p-id="9128" xmlns:xlink="http://www.w3.org/1999/xlink" width="216.6015625" height="200"><path d="M1088.267782 234.620251a21.251213 21.251213 0 0 1-21.422594-21.251213V191.946444A21.251213 21.251213 0 0 0 1045.593975 171.380753H576.182092a63.925021 63.925021 0 0 1-63.925021-64.096402V63.925021a21.422594 21.422594 0 0 0-21.422594-21.251213H192.117824A21.422594 21.422594 0 0 0 171.552134 63.925021v42.673807A63.925021 63.925021 0 0 1 106.770209 171.380753H64.096402a21.422594 21.422594 0 0 0-21.251214 20.565691v21.422594a21.422594 21.422594 0 0 1-42.673807 0V191.946444a63.925021 63.925021 0 0 1 63.925021-63.925021h42.673807a21.422594 21.422594 0 0 0 21.422594-21.422595V63.925021A63.925021 63.925021 0 0 1 192.117824 0h298.716653a64.267782 64.267782 0 0 1 64.096402 63.925021v42.673807a21.251213 21.251213 0 0 0 21.251213 21.422595H1045.593975a63.925021 63.925021 0 0 1 63.925021 63.925021v21.422594a21.079833 21.079833 0 0 1-21.251214 21.251213zM1045.593975 1024H64.096402A64.096402 64.096402 0 0 1 0.171381 959.732218V621.597992a21.422594 21.422594 0 0 1 42.673807 0V959.732218a21.251213 21.251213 0 0 0 21.251214 21.251213H1045.593975A21.079833 21.079833 0 0 0 1066.845188 959.732218v-94.430795a21.422594 21.422594 0 1 1 42.673808 0V959.732218A63.925021 63.925021 0 0 1 1045.593975 1024z m42.673807-222.794979a21.422594 21.422594 0 0 1-21.422594-21.422594V319.967866A21.251213 21.251213 0 0 0 1045.593975 298.716653H64.096402a21.422594 21.422594 0 0 0-21.251214 21.251213v131.106276a21.422594 21.422594 0 0 1-42.673807 0v-131.106276a64.096402 64.096402 0 0 1 63.925021-63.925021H1045.593975a63.925021 63.925021 0 0 1 63.925021 63.925021v460.157322a21.422594 21.422594 0 0 1-21.251214 21.422594zM21.422594 557.672971a21.422594 21.422594 0 1 1 21.422594-21.251214 21.422594 21.422594 0 0 1-21.422594 21.251214z" fill="#33658A" p-id="9129"></path><path d="M534.193808 497.004184h-149.615398c-3.427615 0-6.341088-7.369372-6.341088-17.138075s2.913473-17.138075 6.341088-17.138076h149.615398c3.598996 0 6.341088 7.369372 6.341087 17.138076s-2.742092 17.138075-6.341087 17.138075zM534.193808 562.12887h-149.615398c-3.427615 0-6.341088-7.369372-6.341088-17.138075s2.913473-17.138075 6.341088-17.138075h149.615398c3.598996 0 6.341088 7.369372 6.341087 17.138075s-2.742092 17.138075-6.341087 17.138075zM534.193808 628.11046h-149.615398c-3.427615 0-6.341088-7.369372-6.341088-17.138075s2.913473-17.138075 6.341088-17.138075h149.615398c3.598996 0 6.341088 7.369372 6.341087 17.138075s-2.742092 17.138075-6.341087 17.138075zM764.358159 856.903766a19.023264 19.023264 0 0 1-13.881841-5.826946l-170.181088-170.69523a19.708787 19.708787 0 1 1 27.763682-27.763682L778.24 822.627615a19.537406 19.537406 0 0 1 0 27.763682 19.366025 19.366025 0 0 1-13.881841 6.512469z" fill="#33658A" p-id="9130"></path><path d="M469.069121 738.308285a196.916485 196.916485 0 0 1-144.645355-330.593473 19.708787 19.708787 0 0 1 28.791966 26.735397 157.156151 157.156151 0 1 0 57.241172-39.417573 19.708787 19.708787 0 1 1-14.738745-36.5041 196.916485 196.916485 0 1 1 73.350962 379.779749z" fill="#33658A" p-id="9131"></path></svg>