<?xml version="1.0" standalone="no"?><!DOCTYPE svg PUBLIC "-//W3C//DTD SVG 1.1//EN" "http://www.w3.org/Graphics/SVG/1.1/DTD/svg11.dtd"><svg t="1732351617336" class="icon" viewBox="0 0 1024 1024" version="1.1" xmlns="http://www.w3.org/2000/svg" p-id="13776" xmlns:xlink="http://www.w3.org/1999/xlink" width="200" height="200"><path d="M748.3 534.7c0-128.8-104.8-233.6-233.6-233.6S281 405.9 281 534.7c0 116.2 85.5 212 196.7 229.9v220.8h73.9V764.6c111.2-17.8 196.7-113.7 196.7-229.9zM514.7 694.5c-88.1 0-159.7-71.7-159.7-159.7S426.6 375 514.7 375s159.7 71.7 159.7 159.7-71.7 159.8-159.7 159.8z" fill="#33658A" p-id="13777"></path><path d="M360.8 245.1V38.3H0.5v947.1h360.3V778.7c-27.2-12.9-52-29.7-73.9-49.9v182.7H74.4V112.2h212.5v182.7c21.9-20.2 46.7-37 73.9-49.8z" p-id="13778" fill="#33658A"></path><path d="M136.3 247.1h107.8V321H136.3zM136.3 447.6h107.8v73.9H136.3zM136.3 676h107.8v73.9H136.3z" p-id="13779" fill="#33658A"></path><path d="M664.2 245.1V38.3h360.3v947.1H664.2V778.7c27.2-12.9 52-29.7 73.9-49.9v182.7h212.5V112.2H738.1v182.7c-21.9-20.2-46.7-37-73.9-49.8z" p-id="13780" fill="#33658A"></path><path d="M780.9 247.1h107.8V321H780.9zM780.9 447.6h107.8v73.9H780.9zM780.9 676h107.8v73.9H780.9z" p-id="13781" fill="#33658A"></path></svg>