<?xml version="1.0" standalone="no"?><!DOCTYPE svg PUBLIC "-//W3C//DTD SVG 1.1//EN" "http://www.w3.org/Graphics/SVG/1.1/DTD/svg11.dtd"><svg t="1732354663477" class="icon" viewBox="0 0 1024 1024" version="1.1" xmlns="http://www.w3.org/2000/svg" p-id="45401" xmlns:xlink="http://www.w3.org/1999/xlink" width="200" height="200"><path d="M128 204.8h793.59744a25.5232 25.5232 0 0 1 18.0992 7.49312A25.4976 25.4976 0 0 1 947.2 230.38464v768.03072c0 14.1312-11.45856 25.58464-25.6 25.58464H107.52256c-0.86528 0-1.71776-0.04352-2.56-0.128-0.8448 0.08448-1.69728 0.128-2.56256 0.128-14.13888 0-25.6-11.456-25.6-25.6V25.6c0-14.13888 11.45856-25.6 25.6-25.6 0.86528 0 1.71776 0.04352 2.56 0.128 0.8448-0.08448 1.69728-0.128 2.56256-0.128H921.6C935.73632 0 947.2 11.45856 947.2 25.6c0 14.13888-11.456 25.6-25.60256 25.6H128v153.6z m0 51.2v716.8h768V256H128z m390.7072 102.4c42.5984 0 77.2096 11.3152 103.8336 35.2768 26.624 23.296 39.936 55.2448 39.936 95.1808 0 32.6144-8.6528 59.904-25.2928 81.2032-5.9904 7.3216-24.6272 24.6272-55.9104 51.9168-12.6464 10.6496-21.9648 22.6304-27.9552 34.6112-7.3216 13.312-10.6496 27.9552-10.6496 43.9296v11.3152h-71.2192v-11.3152c0-24.6272 3.9936-45.9264 13.312-63.232 8.6528-18.6368 33.9456-45.9264 75.2128-82.5344l11.3152-12.6464c11.9808-15.3088 18.6368-31.2832 18.6368-48.5888 0-23.296-6.656-41.2672-19.3024-54.5792-13.312-13.312-32.6144-19.968-56.576-19.968-29.952 0-51.9168 9.3184-65.2288 28.6208-11.9808 15.9744-17.9712 38.6048-17.9712 67.8912H360.96c0-48.5888 13.9776-86.528 41.9328-114.4832 27.9552-28.6208 66.56-42.5984 115.8144-42.5984z m-11.9808 389.376c13.9776 0 25.9584 3.9936 35.2768 13.312 9.3184 8.6528 13.9776 19.968 13.9776 33.9456s-5.3248 25.2928-14.6432 34.6112c-9.3184 8.6528-21.2992 13.312-34.6112 13.312-13.312 0-25.2928-4.6592-34.6112-13.9776-9.3184-9.3184-13.9776-20.6336-13.9776-33.9456 0-13.9776 4.6592-25.2928 13.9776-33.9456 9.3184-9.3184 21.2992-13.312 34.6112-13.312z" fill="#33658A" p-id="45402"></path></svg>